# xmcd
#
# Track frame offsets: 
#        195
#        19750
#        34087
#        54562
#        82040
#        101982
#        120830
#        143575
#        164462
#        189090
#        214587
#        235562
#        256475
#        273552
#        288830
#        304802
#
# Disc length: 4417 seconds
#
# Revision: 0
# Processed by: cddbd v1.4PL0 Copyright (c) Steve Scherf et al.
# Submitted via: ExactAudioCopy v0.90b4
#
DISCID=d6113f10
DTITLE=P. J. Belly and the Lone Star Blues Band - White Boys With Pote
DTITLE=ntial
DYEAR=1900
DGENRE=Blues
TTITLE0=Hideaway
TTITLE1=Intro/Sell My Monkey
TTITLE2=Just A Little Bit
TTITLE3=Padre Blues
TTITLE4=Big Boss Man
TTITLE5=Arlita
TTITLE6=Sweet Little Rock And Roller
TTITLE7=Lyin' To Me Baby
TTITLE8=Honest I do
TTITLE9=The Thrill Is Gone
TTITLE10=How Blue Can You Get
TTITLE11=Intro/Expressway To Your Heart
TTITLE12=Walkin' The Dog
TTITLE13=Oh, Pretty Woman
TTITLE14=Messin' With The Kid
TTITLE15=Mean Woman Blues
EXTD=
EXTT0=
EXTT1=
EXTT2=
EXTT3=
EXTT4=
EXTT5=
EXTT6=
EXTT7=
EXTT8=
EXTT9=
EXTT10=
EXTT11=
EXTT12=
EXTT13=
EXTT14=
EXTT15=
PLAYORDER=
